<?xml version="1.0" encoding="utf-8"?>
<!-- Generator: Adobe Illustrator 16.0.0, SVG Export Plug-In . SVG Version: 6.00 Build 0)  -->
<!DOCTYPE svg PUBLIC "-//W3C//DTD SVG 1.1//EN" "http://www.w3.org/Graphics/SVG/1.1/DTD/svg11.dtd">
<svg version="1.1" id="图层_1" xmlns="http://www.w3.org/2000/svg" xmlns:xlink="http://www.w3.org/1999/xlink" x="0px" y="0px"
	 width="708.66px" height="992.13px" viewBox="0 0 708.66 992.13" enable-background="new 0 0 708.66 992.13" xml:space="preserve">
<path fill="#FFFFFF" stroke="#000000" stroke-miterlimit="10" d="M560.023,735.659c0,18.786-15.229,34.016-34.016,34.016H204.504
	c-18.786,0-34.016-15.229-34.016-34.016V225.783c0-18.786,15.229-34.016,34.016-34.016h321.504
	c18.786,0,34.016,15.229,34.016,34.016V735.659z"/>
<rect x="193.744" y="219.674" fill="#FFFFFF" stroke="#000000" stroke-miterlimit="10" width="336.047" height="515.117"/>
<circle fill="#FFFFFF" stroke="#000000" stroke-miterlimit="10" cx="371.07" cy="734.791" r="30.814"/>
<rect x="223.977" y="253.396" fill="#FFFFFF" stroke="#000000" stroke-miterlimit="10" width="50" height="53.488"/>
<rect x="223.977" y="323.163" fill="#FFFFFF" stroke="#000000" stroke-miterlimit="10" width="268.604" height="26.744"/>
<rect x="220.028" y="377.629" fill="#FFFFFF" stroke="#000000" stroke-miterlimit="10" width="50" height="53.488"/>
<rect x="220.028" y="447.396" fill="#FFFFFF" stroke="#000000" stroke-miterlimit="10" width="268.604" height="26.744"/>
<rect x="220.028" y="500.884" fill="#FFFFFF" stroke="#000000" stroke-miterlimit="10" width="50" height="53.488"/>
<rect x="220.028" y="570.65" fill="#FFFFFF" stroke="#000000" stroke-miterlimit="10" width="268.605" height="26.744"/>
</svg>
