<?xml version="1.0" encoding="utf-8"?>
<!-- Generator: Adobe Illustrator 16.0.0, SVG Export Plug-In . SVG Version: 6.00 Build 0)  -->
<!DOCTYPE svg PUBLIC "-//W3C//DTD SVG 1.1//EN" "http://www.w3.org/Graphics/SVG/1.1/DTD/svg11.dtd">
<svg version="1.1" id="图层_1" xmlns="http://www.w3.org/2000/svg" xmlns:xlink="http://www.w3.org/1999/xlink" x="0px" y="0px"
	 width="708.66px" height="992.13px" viewBox="0 0 708.66 992.13" enable-background="new 0 0 708.66 992.13" xml:space="preserve">
<path fill="none" stroke="#000000" stroke-miterlimit="10" d="M471.651,613.86c2.293-19.416,14.904-37.966,20.698-56.718
	c4.377-14.169,5.859-28.809,7.209-43.282c2.26-24.229,8.861-49.072,13.924-72.908c4.468-21.032,6.555-42.478,10.722-63.476
	c3.659-18.438,8.26-37.03,11.45-55.543c2.081-12.076,8.465-47.038,2.359-59.364c-4.671-9.431-28.398-11.328-38.224-13.473
	c-11.01-2.405-21.932-4.832-33.048-6.987c-12.381-2.4-40.435-11.769-51.58-4.25c-12.561,8.473-11.651,36.908-13.57,50.125
	c-4.264,29.368-9.959,58.144-15.714,87.253c-7.387,37.361-13.991,74.568-21.354,111.921c-5.473,27.763-14.866,57.773-14.965,86.003"
	/>
<path fill="none" stroke="#000000" stroke-miterlimit="10" d="M468.163,312.698c-26.223-2.663-34.094,51.983,0,48.837
	c24.326-2.245,26.301-50.776-1.163-48.837"/>
<path fill="none" stroke="#000000" stroke-miterlimit="10" d="M453.047,381.302c-2.98,9.479-7.89,18.289-10.466,27.907"/>
<path fill="none" stroke="#000000" stroke-miterlimit="10" d="M434.441,384.791c-8.685-0.857-14.188,8.917-22.093,11.628"/>
<path fill="none" stroke="#000000" stroke-miterlimit="10" d="M470.488,401.07c3.782,0.031,11.176,12.972,12.791,18.604"/>
<path fill="none" stroke="#000000" stroke-miterlimit="10" d="M426.303,446.418c-9.443-2.566-27.369,48.321-29.17,54.846
	c-3.225,11.684-8.836,27.277-8.04,39.34"/>
<path fill="none" stroke="#000000" stroke-miterlimit="10" d="M454.209,452.232c10.72,10.288,6.872,45.902,7.004,59.52
	c0.13,13.49-0.027,26.989-0.027,40.48"/>
<path fill="none" stroke="#000000" stroke-miterlimit="10" d="M228.628,305.721c-11.392-2.724-13.577,10.739-11.425,19.314
	c3.123,12.449,11.92,21.613,23.084,27.193c23.391,11.692,53.064,0.825,56.938-26.653c4.192-29.738-17.581-46.312-44.156-42.262
	c-11.082,1.688-27.199,4.979-34.001,14.288c-4.759,6.514-7.627,23.161-2.067,30.212"/>
<path fill="none" stroke="#000000" stroke-miterlimit="10" d="M247.232,391.768c4.465,10.775,1.163,28.567,1.163,40.698"/>
<path fill="none" stroke="#000000" stroke-miterlimit="10" d="M225.14,409.209c-15.432-2.827-38.234,39.161-41.86,52.325"/>
<path fill="none" stroke="#000000" stroke-miterlimit="10" d="M280.954,410.372c18.459-8.654,26.985,49.728,31.395,61.628"/>
<path fill="none" stroke="#000000" stroke-miterlimit="10" d="M206.535,513.86c-8.389,4.911-14.782,22.79-19.287,31.836
	c-12.471,25.039-21.615,51.286-26.987,78.641c-2.57,13.086-1.786,29.823-7.214,41.849"/>
<path fill="none" stroke="#000000" stroke-miterlimit="10" d="M254.209,508.047c8.396,1.918,14.11,24.647,17.359,32.338
	c11.859,28.077,22.165,54.79,27.816,84.897c4.214,22.45,11.808,46.044,12.964,68.811"/>
<path fill="none" stroke="#000000" stroke-miterlimit="10" d="M6.535,576.651c19.509-6.86,50.807-1.163,71.603-1.163
	c14.891,0,29.782,0,44.673,0c17.468,0,37.317,2.095,53.869-3.229c-1.245-0.452-2.533-0.539-3.865-0.259"/>
<path fill="none" stroke="#000000" stroke-miterlimit="10" d="M289.093,572c137.209,0,274.419,0,411.628,0"/>
<path fill="none" stroke="#000000" stroke-miterlimit="10" d="M247.232,409.209c9.072,17.653-7.914,54.556-12.791,73.256"/>
</svg>
