<?xml version="1.0" encoding="utf-8"?>
<!-- Generator: Adobe Illustrator 16.0.0, SVG Export Plug-In . SVG Version: 6.00 Build 0)  -->
<!DOCTYPE svg PUBLIC "-//W3C//DTD SVG 1.1//EN" "http://www.w3.org/Graphics/SVG/1.1/DTD/svg11.dtd">
<svg version="1.1" id="图层_1" xmlns="http://www.w3.org/2000/svg" xmlns:xlink="http://www.w3.org/1999/xlink" x="0px" y="0px"
	 width="708.66px" height="992.13px" viewBox="0 0 708.66 992.13" enable-background="new 0 0 708.66 992.13" xml:space="preserve">
<path fill="none" stroke="#000000" stroke-miterlimit="10" d="M128.628,512.697c0.124,1.031,0.298,2.055,0.522,3.07
	c-11.208-8.732-58.654-100.25-24.792-98.612c15.87,0.768,30.402,28.763,35.885,40.936c5.324,11.821,6.892,23.441,9.314,36.001"/>
<path fill="none" stroke="#000000" stroke-miterlimit="10" d="M222.814,506.884c-5.863-32.347-10.942-69.337-22.993-99.764
	c-9.24-23.33-32.267-81.604-63.984-75.702c-11.779,22.606,5.951,54.47,14.625,75.524c7.742,18.788,16.276,37.715,20.958,57.591
	c4.31,18.297,13.303,42.022,11.86,60.956"/>
<path fill="none" stroke="#000000" stroke-miterlimit="10" d="M319.326,488.279c1.936-16.237-2.326-36.427-2.326-53.488
	c0-22.472-2.763-42.147-6.689-64.255c-4.006-22.561-9.944-66.036-29.676-80.879c-10.396-7.82-30.147-5.723-38.452,4.464
	c-10.657,13.071-4.252,43.251-4.252,58.921c0,52.831,0,105.662,0,158.493"/>
<path fill="none" stroke="#000000" stroke-miterlimit="10" d="M436.768,453.396c-0.797-10.248-4.117-20.326-6.399-30.424
	c-7.148-31.644-5.4-64.243-13.437-95.474c-4.86-18.891-9.268-53.503-31.736-60.091c-32.349-9.484-28.655,43.595-28.66,61.837
	c-0.005,27.36,0,54.721,0,82.081c0,25.338,1.887,50.121,3.488,74.629"/>
<path fill="none" stroke="#000000" stroke-miterlimit="10" d="M137.93,562.697c-5.74,7.072,3.78,32.206,5.499,41.331
	c7.518,39.905,16.096,74.903,33.97,111.706c16.206,33.368,35.092,68.612,57.233,98.547c6.31,8.53,14.438,15.775,23.065,21.672"/>
<path fill="none" stroke="#000000" stroke-miterlimit="10" d="M511.186,497.581c0,32.135,3.057,66.007-1.547,97.836
	c-6.688,46.234-16.993,92.71-26.664,138.375c-3.935,18.578-8.623,60.963-29.928,69.604"/>
<path fill="none" stroke="#000000" stroke-miterlimit="10" d="M444.907,446.418c0-27.637,2.985-60.258,19.854-83.272
	c9.162-12.5,32.225-13.303,47.531-9.773c17.774,4.099,28.21,24.701,29.126,41.219c2.316,41.763-17.406,73.571-31.396,111.129"/>
<path fill="none" stroke="#000000" stroke-miterlimit="10" d="M187.93,463.86c8.299-1.139,14.188-7.018,22.093-9.302"/>
<path fill="none" stroke="#000000" stroke-miterlimit="10" d="M169.326,392.93c2.811-2.895,8.002-4.339,12.791-4.651"/>
<path fill="none" stroke="#000000" stroke-miterlimit="10" d="M260.023,447.582c4.649-7.158,24.949-11.181,33.721-10.465"/>
<path fill="none" stroke="#000000" stroke-miterlimit="10" d="M260.023,359.209c8.915,0,17.83,0,26.744,0"/>
<path fill="none" stroke="#000000" stroke-miterlimit="10" d="M380.953,416.186c5.714,3.042,21.916-1.271,29.07-3.488"/>
<path fill="none" stroke="#000000" stroke-miterlimit="10" d="M370.488,348.744c6.25-2.831,13.197-2.618,19.768-4.651"/>
<path fill="none" stroke="#000000" stroke-miterlimit="10" d="M463.512,449.907c8.975,1.876,19.682,6.027,27.907,10.465"/>
<path fill="none" stroke="#000000" stroke-miterlimit="10" d="M279.791,596.419c-9.493,0.634-7.64,18.17-6.861,25.272
	c1.931,17.601,8.541,26.815,18.489,39.844"/>
<path fill="none" stroke="#000000" stroke-miterlimit="10" d="M320.488,628.977c16.275-0.218,13.308,42.266,3.488,48.837"/>
<path fill="none" stroke="#000000" stroke-miterlimit="10" d="M384.441,604.559c18.042,8.568,28.866,31.202,37.21,48.837"/>
<path fill="none" stroke="#000000" stroke-miterlimit="10" d="M362.349,678.977c1.229,12.455-5.217,30.195-15.116,38.372"/>
<path fill="none" stroke="#000000" stroke-miterlimit="10" d="M305.372,675.488c13.759,20.041,53.136,27.508,75.581,26.744"/>
<path fill="none" stroke="#000000" stroke-miterlimit="10" d="M340.256,599.907c23.298,15.635,39.362,54.072,39.535,81.396"/>
<path fill="none" stroke="#000000" stroke-miterlimit="10" d="M332.116,569.675c-5.992,13.142-12.781,25.786-14.762,40.975
	c-2.875,22.027,1.884,43.271,3.134,64.839"/>
<path fill="none" stroke="#000000" stroke-miterlimit="10" d="M271.651,613.86c29.511,2.949,59.179,3.586,88.687,7.277
	c9.35,1.169,25.348,1.128,28.755,12.49"/>
<path fill="none" stroke="#000000" stroke-miterlimit="10" d="M365.837,574.325c-28.703-12.261-65.844,126.99-70.93,145.35"/>
<path fill="none" stroke="#000000" stroke-miterlimit="10" d="M236.768,656.884c-0.382-18.489,36.641-34.782,49.834-40.574
	c35.674-15.662,72.745-16.218,110.631-10.589"/>
<path fill="none" stroke="#000000" stroke-miterlimit="10" d="M119.326,509.209c2.903,8.431-0.157,17.765,1.163,26.513
	c1.121,7.431,2.833,8.846,6.722,15.358c8.619,14.434,11.403,33.586,13.045,49.989"/>
<path fill="none" stroke="#000000" stroke-miterlimit="10" d="M147.232,484.791c-3.611,9.987,0.733,28.322,8.083,36.076
	c4.667,4.923,27.348,13.294,25.638,1.134"/>
<path fill="none" stroke="#000000" stroke-miterlimit="10" d="M219.326,482.465c-0.634,9.116,0.582,30.048,8.121,36.189
	c8.762,7.138,16.12-0.051,13.972-9.445"/>
<path fill="none" stroke="#000000" stroke-miterlimit="10" d="M354.209,465.023c0.377,13.874-2.475,45.647-18.636,48.855
	c-16.2,3.217-19.696-19.133-18.574-31.414"/>
<path fill="none" stroke="#000000" stroke-miterlimit="10" d="M429.791,438.279c0.123,3.725,6.695,19.565,10.465,20.773
	c6.064,1.943,9.396-2.167,8.14-7.982"/>
<path fill="none" stroke="#000000" stroke-miterlimit="10" d="M317,553.396c-4.347-11.429-7.029-87.689,11.628-84.884"/>
<path fill="none" stroke="#000000" stroke-miterlimit="10" d="M334.442,484.791C365.266,480.255,367,549.762,367,568.512"/>
</svg>
