<?xml version="1.0" encoding="utf-8"?>
<!-- Generator: Adobe Illustrator 16.0.0, SVG Export Plug-In . SVG Version: 6.00 Build 0)  -->
<!DOCTYPE svg PUBLIC "-//W3C//DTD SVG 1.1//EN" "http://www.w3.org/Graphics/SVG/1.1/DTD/svg11.dtd">
<svg version="1.1" id="图层_1" xmlns="http://www.w3.org/2000/svg" xmlns:xlink="http://www.w3.org/1999/xlink" x="0px" y="0px"
	 width="708.66px" height="992.13px" viewBox="0 0 708.66 992.13" enable-background="new 0 0 708.66 992.13" xml:space="preserve">
<path fill="none" stroke="#000000" stroke-miterlimit="10" d="M314.674,132.465c-15.667-0.244-8.858,42.847-5.806,51.444
	c5.705,16.068,23.046,29.699,20.922,48.556"/>
<path fill="none" stroke="#000000" stroke-miterlimit="10" d="M318.163,346.418c0,29.833-7.857,45.95-19.763,72.124
	c-9.734,21.399-12.795,41.784-12.795,65.085"/>
<path fill="none" stroke="#000000" stroke-miterlimit="10" d="M351.884,534.791c17.748,23.478,25.576,49.493,25.581,78.226
	c0.004,20.405,1.496,33.64,11.628,52.007"/>
<path fill="none" stroke="#000000" stroke-miterlimit="10" d="M301.884,780.14c-14.973,19.565-10.465,53.343-10.465,76.744
	c0,12.178,4.207,34.479-2.326,45.349"/>
</svg>
