<?xml version="1.0" encoding="utf-8"?>
<!-- Generator: Adobe Illustrator 16.0.0, SVG Export Plug-In . SVG Version: 6.00 Build 0)  -->
<!DOCTYPE svg PUBLIC "-//W3C//DTD SVG 1.1//EN" "http://www.w3.org/Graphics/SVG/1.1/DTD/svg11.dtd">
<svg version="1.1" id="图层_1" xmlns="http://www.w3.org/2000/svg" xmlns:xlink="http://www.w3.org/1999/xlink" x="0px" y="0px"
	 width="708.66px" height="992.13px" viewBox="0 0 708.66 992.13" enable-background="new 0 0 708.66 992.13" xml:space="preserve">
<path fill="none" stroke="#000000" stroke-miterlimit="10" d="M62.349,83.628c-0.201,125.981,11.628,251.349,11.628,377.175
	c0,10.054-1.838,19.444,4.078,27.476c15.136,20.548,41.304-2.749,56.42-11.928c30.259-18.375,50.691-47.423,73.595-73.6
	c23.016-26.305,62.585-15.635,94.977-15.635"/>
<path fill="none" stroke="#000000" stroke-miterlimit="10" d="M586.768,378.977c19.481,0,39.75,1.925,59.087-0.143
	c12.482-1.335,24.708-6.573,37.425-5.671"/>
<path fill="none" stroke="#000000" stroke-miterlimit="10" d="M497.232,432.465c1.613-41.035,1.16-85.386-1.339-126.412
	c-13.409-1.469-28.068-0.333-41.771-0.333c-23.762,0-47.229,1.777-70.938,2.419c-19.989,0.542-42.543-1.894-62.038,3.007
	c-28.994,7.289-5.106,53.933-0.667,73.899c2.238,10.063,1.895,21.849,5.822,31.141"/>
<path fill="none" stroke="#000000" stroke-miterlimit="10" d="M267,63.86c0,24.497-0.003,48.995,0,73.492
	c0.003,26.688-3.555,63.297,7.258,88.52c4.687,10.932,9.65,11.777,23.222,12.468c36.666,1.865,73.973-0.06,110.672-0.06
	c40.642,0,81.288-0.182,121.929-0.008c16.388,0.07,31.024-1.845,47.115-4.438c4.529-0.73,11.002,0.092,14.055-3.699
	c3.444-4.278,3.396-18.351,3.771-23.781c2.087-30.287-0.475-60.064,3.639-90.427c2.879-21.247,6.503-40.894,5.419-62.355
	c-20.766-1.862-42.974,0.999-63.885,0.983c-56.813-0.043-113.626,0.004-170.438,0.004c-35.415,0-70.83,0-106.244,0"/>
<path fill="none" stroke="#000000" stroke-miterlimit="10" d="M498.396,92.93c-14.334,6.562-1.104,45.048,13.602,48.8
	c16.383,4.18,29.583-4.557,36.454-19.737c6.238-13.779,6.213-32.043-9.335-36.036c-9.324-2.395-37.63-3.287-45.372,2.322"/>
<path fill="none" stroke="#000000" stroke-miterlimit="10" d="M478.628,82.465c-0.373,4.223,9.217,13.065,13.953,17.441"/>
<path fill="none" stroke="#000000" stroke-miterlimit="10" d="M532.116,69.674c0,4.264,0,8.527,0,12.791"/>
<path fill="none" stroke="#000000" stroke-miterlimit="10" d="M553.047,88.279c8.136,0.646,15.281-3.281,23.256-3.489"/>
<path fill="none" stroke="#000000" stroke-miterlimit="10" d="M560.023,127.814c2.951,10.158,11.241,18.864,10.465,30.232"/>
<path fill="none" stroke="#000000" stroke-miterlimit="10" d="M523.977,158.046c-6.74,1.543-12.285,12.192-18.604,16.279"/>
<path fill="none" stroke="#000000" stroke-miterlimit="10" d="M478.628,130.14c-10.756-4.407-24.271,3.484-33.721,8.14"/>
<path fill="none" stroke="#000000" stroke-miterlimit="10" d="M389.093,369.674c-13.401-7.195-8.79,43.169-0.056,50.898
	c14.414,12.754,41.031,5.734,46.582-12.402c4.811-15.717,3.087-50.28-15.131-55.965c-18.679-5.828-31.246,7.793-37.209,23.283"/>
<path fill="none" stroke="#000000" stroke-miterlimit="10" d="M380.953,308.046c4.933-1.337,9.554,35.345,11.628,43.023"/>
<path fill="none" stroke="#000000" stroke-miterlimit="10" d="M412.349,291.768c-7.532,12.516-2.325,42.145-2.325,58.139"/>
<path fill="none" stroke="#000000" stroke-miterlimit="10" d="M379.791,269.674c-11.25,8.884-4.577,44.232,14.599,34.708
	c17.198-8.542,8.825-49.659-16.925-30.057"/>
<path fill="none" stroke="#000000" stroke-miterlimit="10" d="M357.697,348.744c12.095,5.028,24.1,30.075,31.396,41.538
	c6.666,10.473,11.763,21.862,19.768,31.718"/>
<path fill="none" stroke="#000000" stroke-miterlimit="10" d="M311.186,353.396c2.359,22.595,55.377,15.126,39.648-10.664
	c-12.071-19.793-49.395-5.756-34.622,18.265c6.234,10.136,19.557,17.154,27.3,26.431c10.542,12.63,19.976,26.185,30.584,38.79
	c8.392,9.971,18.19,20.731,21.973,32.993"/>
<path fill="none" stroke="#000000" stroke-miterlimit="10" d="M391.419,481.302c13.029-8.246,14.074,56.524,18.754,62.838
	c7.162,9.664,26.436,10.987,34.212,1.309c7.195-8.956,3.602-26.804,4.011-37.402c0.719-18.613-2.033-36.814-4.651-54.651"/>
<path fill="none" stroke="#000000" stroke-miterlimit="10" d="M401.884,583.628c-3.632,6.984-1.726,24.673-2.066,33.19
	c-0.625,15.63,0.613,31.298-1.426,46.775c-1.305,9.904-1.143,20.91-3.484,30.499"/>
<path fill="none" stroke="#000000" stroke-miterlimit="10" d="M446.069,573.163c-1.571,33.208,15.014,66.379,18.605,98.837"/>
<path fill="none" stroke="#000000" stroke-miterlimit="10" d="M235.604,466.186c-14.307,20.151-26.604,47.979-32.55,71.917
	c37.144,10.568,79.055,10.641,117.426,10.641c17.057,0,34.114,0,51.171,0"/>
<path fill="none" stroke="#000000" stroke-miterlimit="10" d="M476.303,537.116c70.379,0,141.184,6.313,209.302-10.465"/>
<path fill="none" stroke="#000000" stroke-miterlimit="10" d="M227.465,474.326c-1.802-6.201,10.502-22.392,16.598-27.645
	c12.096-10.422,35.959-6.728,52.092-6.104c15.958,0.617,31.156,6.636,46.427,7.004"/>
<path fill="none" stroke="#000000" stroke-miterlimit="10" d="M465.837,448.744c11.071-5.105,34.767-1.163,47.965-1.163
	c20.276,0,40.554,0,60.831,0c18.094,0,36.188,0,54.28,0c20.06,0,40.12,0,60.18,0"/>
<path fill="none" stroke="#000000" stroke-miterlimit="10" d="M320.488,410.372c-4.493,35.813,18.959,30.232,45.349,30.232"/>
<path fill="none" stroke="#000000" stroke-miterlimit="10" d="M440.256,425.488c11.524,8.057,44.018,2.326,59.303,2.326"/>
</svg>
