<?xml version="1.0" encoding="utf-8"?>
<!-- Generator: Adobe Illustrator 16.0.0, SVG Export Plug-In . SVG Version: 6.00 Build 0)  -->
<!DOCTYPE svg PUBLIC "-//W3C//DTD SVG 1.1//EN" "http://www.w3.org/Graphics/SVG/1.1/DTD/svg11.dtd">
<svg version="1.1" id="图层_1" xmlns="http://www.w3.org/2000/svg" xmlns:xlink="http://www.w3.org/1999/xlink" x="0px" y="0px"
	 width="708.66px" height="992.13px" viewBox="0 0 708.66 992.13" enable-background="new 0 0 708.66 992.13" xml:space="preserve">
<path fill="none" stroke="#000000" stroke-miterlimit="10" d="M-0.442,385.954c-1.606-22.478,16.809-44.313,31.366-59.329
	c22.202-22.9,52.667-33.635,81.842-44.573c54.981-20.613,118.041-22.842,175.933-22.842c58.86,0,115.403,0.483,172.699,13.986
	c26.462,6.236,53.519,9.912,79.979,16.163c24.861,5.873,48.088,16.291,71.722,25.755c23.937,9.585,48.596,17.564,63.17,40.288
	c5.651,8.812,21.516,28.034,20.963,38.691"/>
<path fill="none" stroke="#000000" stroke-miterlimit="10" d="M1.884,637.116c-4.189,9.572,15.491,28.048,21.215,33.991
	c13.917,14.453,32.734,21.854,51.809,27.481c47.23,13.932,99.909,25.28,149.193,26.633c47.239,1.296,94.742,1.695,141.554-5.108
	c51.645-7.506,95.974-21.27,144.347-40.22c56.687-22.208,113.951-43.466,161.545-81.983c18.478-14.954,44.241-36.884,48.942-61.957"
	/>
<path fill="none" stroke="#000000" stroke-miterlimit="10" d="M280.954,455.721c-0.849-14.348,5.599-29.684,8.201-43.675
	c3.95-21.235,8.691-42.528,10.635-63.853c0.356-3.912,1.221-26.582,5.499-29.247c7.134-4.445,17.041,19.385,18.795,23.583
	c15.706,37.563,11.52,80.093,11.52,120.169"/>
<path fill="none" stroke="#000000" stroke-miterlimit="10" d="M212.349,473.163c-2.805-22.439-15.99-43.696-24.433-64.591
	c-4.743-11.738-14.438-37.024-10.45-50.525c9.64-32.64,63.206,35.841,67.752,51.768c4.313,15.106-3.05,41.707,4.577,54.924
	c8.874,15.378,37.692-1.579,31.16-15.994"/>
<path fill="none" stroke="#000000" stroke-miterlimit="10" d="M339.093,455.721c-0.376,14.61,3.44,20.262,19.908,14.941
	c20.883-6.748,33.311-29.621,41.403-48.115c8.286-18.938,21.339-49.985,40.58-59.836c2.724,19.799-0.425,40.449-5.339,59.249
	c-4.758,18.203-2.62,37.275-17.482,51.204"/>
<path fill="none" stroke="#000000" stroke-miterlimit="10" d="M460.023,508.047c18.114-4.733,38.883-33.043,43.046-51.066
	c3.035-13.135,9.396-48.182-13.997-39.749c-18.49,6.666-20.158,32.451-34.836,43.2c-11.224,8.219-27.773,1.074-38.399,10.405"/>
<path fill="none" stroke="#000000" stroke-miterlimit="10" d="M204.209,481.302c-18.62,17.517-63.475-24.137-73.308-5.75
	c-3.633,6.793,0.289,24.877,3.254,31.331c4.469,9.726,13,18.181,23.542,21.803c10.231,3.517,20.163,2.565,30.232,8.11
	c12.582,6.93,15.139,18.635,18.574,31.628c3.656,13.831,4.643,28.606,9.565,41.894c5.072,13.691,11.279,24.91,12.877,39.391
	c1.41,12.771-1.873,29.826,2.007,42.059"/>
<path fill="none" stroke="#000000" stroke-miterlimit="10" d="M454.209,512.697c0.58,20.817-13.642,45.059-22.157,63.608
	c-6.056,13.191-13.38,23.228-20.897,35.211c-16.263,25.925-23.074,53.775-32.526,82.576"/>
<path fill="none" stroke="#000000" stroke-miterlimit="10" d="M263.512,528.977c-1.989-19.191,11.572-28.282,27.907-27.907"/>
<path fill="none" stroke="#000000" stroke-miterlimit="10" d="M318.163,483.628c16.095,2.258,24.931,39.327,26.744,53.488"/>
<path fill="none" stroke="#000000" stroke-miterlimit="10" d="M276.302,541.768c-2.08-7.555,20.402-17.053,27.907-16.279"/>
<path fill="none" stroke="#000000" stroke-miterlimit="10" d="M290.256,545.256c-1.789,17.901,11.443,35.529,30.232,33.721"/>
<path fill="none" stroke="#000000" stroke-miterlimit="10" d="M346.07,542.931c-37.498,0.097-58.054,17.805-58.14,56.977"/>
<path fill="none" stroke="#000000" stroke-miterlimit="10" d="M236.768,567.349c15.666-28.852,48.629-42.478,79.933-44.316
	c11.181-0.656,40.452-5.259,46.811,8.271"/>
<path fill="none" stroke="#000000" stroke-miterlimit="10" d="M305.372,481.302c-12.387,10.306,4.899,60.114,8.758,74.337
	c5.813,21.426,14.834,36.708,26.126,54.732"/>
<path fill="none" stroke="#000000" stroke-miterlimit="10" d="M357.697,496.418c7.428,8.331,12.118,30.945,15.193,41.9
	c3.638,12.962,3.027,24.3-5.891,34.845"/>
<path fill="none" stroke="#000000" stroke-miterlimit="10" d="M342.582,576.651c-1.233-17.991,15.919-31.498,32.558-30.232"/>
</svg>
