<?xml version="1.0" encoding="utf-8"?>
<!-- Generator: Adobe Illustrator 16.0.0, SVG Export Plug-In . SVG Version: 6.00 Build 0)  -->
<!DOCTYPE svg PUBLIC "-//W3C//DTD SVG 1.1//EN" "http://www.w3.org/Graphics/SVG/1.1/DTD/svg11.dtd">
<svg version="1.1" id="图层_1" xmlns="http://www.w3.org/2000/svg" xmlns:xlink="http://www.w3.org/1999/xlink" x="0px" y="0px"
	 width="708.66px" height="992.13px" viewBox="0 0 708.66 992.13" enable-background="new 0 0 708.66 992.13" xml:space="preserve">
<path fill="none" stroke="#000000" stroke-miterlimit="10" d="M50.721,87.116c0.237,84.851,5.814,169.103,5.814,253.946
	c0,29.305,0,58.61,0,87.915"/>
<path fill="none" stroke="#000000" stroke-miterlimit="10" d="M572.813,69.674c0,55.202,0,110.405,0,165.607
	c0,47.131,5.471,93.427,5.811,140.369c0.198,27.461,0.004,54.933,0.004,82.396"/>
<path fill="none" stroke="#000000" stroke-miterlimit="10" d="M225.14,422c-0.304-20.766,18.609-64.17,39.535-69.824
	c14.987-4.049,38.609,5.99,49.969,15.354c14.481,11.939,23.566,33.733,24.445,51.761c0.734,15.054,2.405,29.49-10.525,38.637
	c-15.848,11.21-45.768,7.468-63.07,2.439c-14.78-4.296-31.525-9.629-34.6-25.84c-2.138-11.274-0.035-25.484,3.548-35.784"/>
<path fill="none" stroke="#000000" stroke-miterlimit="10" d="M161.186,670.837c0-25.42,1.235-49.43,4.842-74.645
	c2.957-20.674,6.887-40.779,10.333-61.373c3.276-19.583,5.84-37.244,22.704-50.01c14.762-11.175,35.082-14.222,52.689-18.271
	c19.622-4.513,43.481-9.356,64.051-6.193c23.589,3.627,31.428,19.613,44.468,36.178c11.967,15.201,18.318,29.355,25.91,47.485
	c9.05,21.611,13.96,42.966,18.904,65.617c4.422,20.257,9.589,39.117,9.589,60.05"/>
<path fill="none" stroke="#000000" stroke-miterlimit="10" d="M350.721,532.465c-2.43,6.744-0.424,14.858-1.988,22.219
	c-1.872,8.811-6.649,17.401-10.803,25.449c-4.833,9.365-10.066,22.601-18.604,29.076"/>
<path fill="none" stroke="#000000" stroke-miterlimit="10" d="M341.418,452.232c2.102,17.904,17.112,34.654,20.897,53.331
	c2.924,14.43,5.848,27.058,5.848,41.819c0,26.905-11.63,59.188-38.373,69.966"/>
<path fill="none" stroke="#000000" stroke-miterlimit="10" d="M303.046,618.512c-4.136-19.682,23.87-8.431,25.582,6.98
	c1.05,9.452-1.081,16.766-12.64,14.059c-10.897-2.551-12.596-12.336-11.779-22.202"/>
<path fill="none" stroke="#000000" stroke-miterlimit="10" d="M232.116,455.721c-0.021,6.897-13.093,20.054-18.604,26.745"/>
<path fill="none" stroke="#000000" stroke-miterlimit="10" d="M158.86,591.768c-8.19-1.722-40.688,29.257-45.349,38.372"/>
<path fill="none" stroke="#000000" stroke-miterlimit="10" d="M226.302,582.465c11.376-17.973,31.141-34.371,52.93-37.352
	c12.646-1.73,15.345,1.697,14.512,12.934"/>
<path fill="none" stroke="#000000" stroke-miterlimit="10" d="M261.186,495.256c3.274,10.527,2.28,26.039-4.651,34.884"/>
<path fill="none" stroke="#000000" stroke-miterlimit="10" d="M225.14,537.116c-4.726-8.037,4.4-29.638,16.279-27.907"/>
<path fill="none" stroke="#000000" stroke-miterlimit="10" d="M127.465,652.232c6.673-3.619,21.665-14.878,25.581-20.93"/>
<path fill="none" stroke="#000000" stroke-miterlimit="10" d="M94.907,645.256c-0.415-11.96,3.802-19.529,16.109-19.79
	c16.701-0.354,21.061,12.596,18.797,26.759c-3.729,23.331-41.279,22.188-36.069-2.317"/>
<path fill="none" stroke="#000000" stroke-miterlimit="10" d="M255.372,408.046c3.107-2.2,8.225-2.688,12.791-2.326"/>
<path fill="none" stroke="#000000" stroke-miterlimit="10" d="M289.093,406.884c8.915,0,17.83,0,26.745,0"/>
<path fill="none" stroke="#000000" stroke-miterlimit="10" d="M277.465,435.954c8.055,2.022,16.941-0.266,24.418,2.326"/>
<path fill="none" stroke="#000000" stroke-miterlimit="10" d="M226.302,438.279c-16.507,4.118-38.415,2.323-55.468,2.325
	c-12.325,0.002-56.305-9.526-65.039,0.954c-7.148,8.578,4.799,50.781,5.391,63c0.725,14.963-2.326,29.129-2.326,44.186"/>
<path fill="none" stroke="#000000" stroke-miterlimit="10" d="M343.744,440.604c19.192,1.624,46.261-6.061,65.281-10.169
	c14.375-3.104,28.239-4.96,42.858-4.947c16.944,0.015,40.986-4.905,56.943,0.817c19.479,6.986,27.903,38.989,33.552,56.107
	c5.105,15.476,8.845,32.403,8.342,48.89"/>
<path fill="none" stroke="#000000" stroke-miterlimit="10" d="M84.442,613.86c3.398-18.544,17.541-37.42,25.705-54.376
	c8.816-18.312,21.481-15.392,40.574-15.392"/>
<path fill="none" stroke="#000000" stroke-miterlimit="10" d="M547.232,528.977c-3.973,9.743-1.163,28.016-1.163,39.276
	c0,23.629,0,47.258,0,70.887c0,19.564,2.189,38.251,2.326,57.279"/>
<path fill="none" stroke="#000000" stroke-miterlimit="10" d="M426.303,522c24.446,0,48.893,0,73.339,0
	c7.493,0,18.435-2.104,25.498,0c16.284,4.849,10.464,31.622,10.465,46.695c0.003,31.071,0,62.143,0,93.215
	c0,52.2,0,104.401,0,156.602"/>
<path fill="none" stroke="#000000" stroke-miterlimit="10" d="M85.604,610.372C71.761,697.203,41.418,782.39,41.418,870.837"/>
<path fill="none" stroke="#000000" stroke-miterlimit="10" d="M535.604,812.697c0.029,39.827-10.09,76.74-16.887,115.708
	c-2.191,12.562,0.774,26.809-2.881,38.943"/>
<path fill="none" stroke="#000000" stroke-miterlimit="10" d="M154.209,665.023c-13.48,22.2-25.505,39.156-44.616,57.084
	c-16.98,15.929-31.837,32.117-35.354,55.84c-6.284,42.388-1.431,88.118-1.425,130.964c0.002,18.58,0.34,35.14,4.134,53.309
	c1.888,9.041,4.313,19.086,4.006,28.385"/>
<path fill="none" stroke="#000000" stroke-miterlimit="10" d="M406.535,649.907c8.267,10.008,13.407,29.374,18.623,41.842
	c11.231,26.848,13.678,56.228,19.486,84.65c5.77,28.238,3.939,57.219,10.674,85.112c5.473,22.67,15.381,46.021,16.333,69.555
	c0.396,9.787-0.936,19.729,1.162,29.306"/>
<path fill="none" stroke="#000000" stroke-miterlimit="10" d="M90.256,149.907c6.268,10.499,2.985,24.233,3.428,35.867
	c0.626,16.43,1.141,32.687,1.223,49.156c0.125,25.148-7.613,51.455-17.7,74.572c-23.75,54.43-33.167,117.216-30.001,176.624
	c2.208,41.429,19.02,77.942,31.712,116.138c4.092,12.315,9.147,53.09,28.78,49.969"/>
<path fill="none" stroke="#000000" stroke-miterlimit="10" d="M94.907,86.535c0,19.747-6.205,36.382,17.355,37.49
	c9.135,0.43,29.822,0.392,36.06-8.071c3.609-4.906,1.237-20.691,1.237-26.411c0-12.771,0.51-25.693-0.176-38.414
	c-11.949-0.238-48.055-5.581-54.479,3.605C91.409,59.732,94.907,80.133,94.907,86.535z"/>
<path fill="none" stroke="#000000" stroke-miterlimit="10" d="M91.418,160.372c-2.945-6.785,16.505-25.598,22.093-31.396"/>
<path fill="none" stroke="#000000" stroke-miterlimit="10" d="M89.093,74.326c-24.63,12.393,23.258,20.149,29.039,20.899
	c11.111,1.442,23.064,1.498,32.935-5.496c8.276-5.864,8.979-14.283-2.671-17.729"/>
<path fill="none" stroke="#000000" stroke-miterlimit="10" d="M123.977,40.604c-2.085,37.803,1.163,74.18,1.163,111.58
	c0,20.87,0,41.741,0,62.611c0,31.556,0,63.112,0,94.668c0,43.326,0,86.652,0,129.978"/>
<path fill="none" stroke="#000000" stroke-miterlimit="10" d="M53.046,418.512c0,109.849,2.326,219.433,2.326,329.069"/>
<path fill="none" stroke="#000000" stroke-miterlimit="10" d="M578.628,424.326c-9.793,138.09,0,277.906,0,416.451
	c0,51.126,5.813,100.934,5.813,152.153"/>
</svg>
