<?xml version="1.0" encoding="utf-8"?>
<!-- Generator: Adobe Illustrator 16.0.0, SVG Export Plug-In . SVG Version: 6.00 Build 0)  -->
<!DOCTYPE svg PUBLIC "-//W3C//DTD SVG 1.1//EN" "http://www.w3.org/Graphics/SVG/1.1/DTD/svg11.dtd">
<svg version="1.1" id="图层_1" xmlns="http://www.w3.org/2000/svg" xmlns:xlink="http://www.w3.org/1999/xlink" x="0px" y="0px"
	 width="708.66px" height="992.13px" viewBox="0 0 708.66 992.13" enable-background="new 0 0 708.66 992.13" xml:space="preserve">
<path fill="none" stroke="#000000" stroke-miterlimit="10" d="M303.046,191.768c0,150,0,300,0,450"/>
<path fill="none" stroke="#000000" stroke-miterlimit="10" d="M489.093,167.349c1.841,22.883-5.656,46.917-5.836,70.165
	c-0.183,23.571-1.584,46.033-3.327,69.412c-2.26,30.297-0.139,61.486-0.139,91.908c0,35.62,0,71.24,0,106.861
	c0,50.784,0,101.568,0,152.353"/>
<path fill="none" stroke="#000000" stroke-miterlimit="10" d="M293.744,192.93c47.671-4.599,96.838-17.861,143.667-28.453
	c19.071-4.313,29.668-6.869,44.705,4.035"/>
<path fill="none" stroke="#000000" stroke-miterlimit="10" d="M385.604,253.396c-8.291,3.045-7.401,44.941,0.259,52.112
	c12.484,11.688,28.646-1.796,35.818-12.896c7.31-11.31,10.843-36.055-2.011-45.08c-11.284-7.923-33.827-4.713-38.718,9.352"/>
<path fill="none" stroke="#000000" stroke-miterlimit="10" d="M364.675,246.418c2.141,5.973,7.386,10.733,10.465,16.279"/>
<path fill="none" stroke="#000000" stroke-miterlimit="10" d="M386.768,226.651c0,6.202,0,12.403,0,18.604"/>
<path fill="none" stroke="#000000" stroke-miterlimit="10" d="M401.884,233.628c0,6.977,0,13.954,0,20.93"/>
<path fill="none" stroke="#000000" stroke-miterlimit="10" d="M433.279,266.186c1.912-0.321,3.167-1.577,3.488-3.488"/>
<path fill="none" stroke="#000000" stroke-miterlimit="10" d="M420.488,244.093c-0.652-7.478,0.77-14.11,3.488-20.93"/>
<path fill="none" stroke="#000000" stroke-miterlimit="10" d="M427.465,261.535c1.669-12.836,15.417-21.42,20.931-32.558"/>
<path fill="none" stroke="#000000" stroke-miterlimit="10" d="M401.884,209.209c0,11.341-1.498,23.92,1.163,34.883"/>
<path fill="none" stroke="#000000" stroke-miterlimit="10" d="M397.232,324.326c0,13.566,0,27.132,0,40.698"/>
<path fill="none" stroke="#000000" stroke-miterlimit="10" d="M362.349,338.279c-10.114,1.453-21.231,23.523-24.418,32.558"/>
<path fill="none" stroke="#000000" stroke-miterlimit="10" d="M418.163,339.442c13.714,3.375,22.844,15.445,31.396,25.582"/>
<path fill="none" stroke="#000000" stroke-miterlimit="10" d="M367,405.721c-15.119,17.913-31.428,31.789-31.396,55.659
	c0.063,46.563,0,93.126,0,139.69"/>
<path fill="none" stroke="#000000" stroke-miterlimit="10" d="M403.047,410.372c8.864,9.146,10.9,27.345,14.084,39.472
	c7.217,27.498,11.915,55.822,17.401,83.756c4.097,20.856,6.894,40.493,6.887,61.655"/>
<path fill="none" stroke="#000000" stroke-miterlimit="10" d="M155.372,313.86c-1.338,0.646-2.479,0.465-3.422-0.542
	c-4.771-20.21,39.305-18.987,50.243-16.923c27.263,5.146,21.372,48.657,8.994,66.673c-8.831,12.853-25.901,18.79-41.021,12.586
	c-22.063-9.053-28.591-46.374-21.77-66.445"/>
<path fill="none" stroke="#000000" stroke-miterlimit="10" d="M126.302,281.302c0.3,7.566,6.522,15.437,10.465,22.093"/>
<path fill="none" stroke="#000000" stroke-miterlimit="10" d="M161.186,268.512c4.501,5.391,2.326,18.245,2.326,25.581"/>
<path fill="none" stroke="#000000" stroke-miterlimit="10" d="M192.582,244.093c0,14.729,0,29.458,0,44.187"/>
<path fill="none" stroke="#000000" stroke-miterlimit="10" d="M218.163,276.651c0.64,5.232-1.014,10.545-3.488,15.116"/>
<path fill="none" stroke="#000000" stroke-miterlimit="10" d="M234.442,299.907c2.299,7.505-5.833,18.268-9.302,25.582"/>
<path fill="none" stroke="#000000" stroke-miterlimit="10" d="M185.604,389.442c-4.453,12.87-1.163,34.12-1.163,48.837"/>
<path fill="none" stroke="#000000" stroke-miterlimit="10" d="M151.884,422c-13.097-1.955-44.734,33.962-41.86,47.674"/>
<path fill="none" stroke="#000000" stroke-miterlimit="10" d="M214.674,425.488c10.042,2.059,20.421,24.885,19.768,34.884"/>
<path fill="none" stroke="#000000" stroke-miterlimit="10" d="M151.884,477.814c-31.723-3.029-20.679,146.12-24.418,167.442"/>
<path fill="none" stroke="#000000" stroke-miterlimit="10" d="M206.535,485.954c10.657,10.827,17.869,34.8,23.103,49.667
	c9.725,27.624,11.775,57.288,11.781,86.283c0.009,49.591-2.326,98.115-2.326,147.771"/>
<path fill="none" stroke="#000000" stroke-miterlimit="10" d="M6.535,613.86c8.964,8.866,29.125,12.717,41.238,17.107
	c12.302,4.458,24.198,8.941,36.821,12.027c8.197,2.004,18.06,3.036,23.104,10.4"/>
<path fill="none" stroke="#000000" stroke-miterlimit="10" d="M239.093,667.349c15.231,2.46,29.901,12.226,44.524,17.461
	c19.57,7.007,39.294,13.648,58.735,20.911c28.691,10.72,61.758,16.24,92.229,21.253c33.589,5.526,66.695,14.03,100.245,19.479
	c39.652,6.439,79.902,15.065,118.82,24.673c16.396,4.047,32.858,10.039,47.075,18.316"/>
<path fill="none" stroke="#000000" stroke-miterlimit="10" d="M301.884,622c0,26.744,0,53.488,0,80.232"/>
<path fill="none" stroke="#000000" stroke-miterlimit="10" d="M478.628,637.116c-7.062,16.25-1.163,46.9-1.163,66.307
	c0,13.169,0,26.339,0,39.508"/>
</svg>
