<?xml version="1.0" encoding="utf-8"?>
<!-- Generator: Adobe Illustrator 16.0.0, SVG Export Plug-In . SVG Version: 6.00 Build 0)  -->
<!DOCTYPE svg PUBLIC "-//W3C//DTD SVG 1.1//EN" "http://www.w3.org/Graphics/SVG/1.1/DTD/svg11.dtd">
<svg version="1.1" id="图层_1" xmlns="http://www.w3.org/2000/svg" xmlns:xlink="http://www.w3.org/1999/xlink" x="0px" y="0px"
	 width="595.281px" height="841.891px" viewBox="0 0 595.281 841.891" enable-background="new 0 0 595.281 841.891"
	 xml:space="preserve">
<circle fill="none" stroke="#000000" stroke-miterlimit="10" cx="370.56" cy="301" r="44"/>
<path fill="none" stroke="#000000" stroke-miterlimit="10" d="M431.56,471.984c0,18.786-15.229,34.016-34.016,34.016h-54.969
	c-18.785,0-34.016-15.229-34.016-34.016v-97.969c0-18.786,15.229-34.017,34.016-34.017h54.969c18.787,0,34.016,15.229,34.016,34.017
	V471.984z"/>
<path fill="none" stroke="#000000" stroke-miterlimit="10" d="M265.561,353c-10.637,2.779-11.91,31.495-12,40.802
	c-0.102,10.608-1.096,19.595,7.052,27.698c7.126,7.089,13.37,6.276,22.414,2.475c7.575-3.186,21.645-8.573,25.533-15.975"/>
<path fill="none" stroke="#000000" stroke-miterlimit="10" d="M303.56,390c-7.938,8.039-33.234,19.325-37.048,1.699
	c-2.973-13.745,5.049-26.759,10.049-38.699"/>
<path fill="none" stroke="#000000" stroke-miterlimit="10" d="M261.561,355c-1.291-5.606-2.531-13.411,1.229-17.973
	c5.079-6.163,17.949-5.91,22.896,0.973c10.736,14.936-12.055,22.133-23.126,16"/>
<path fill="none" stroke="#000000" stroke-miterlimit="10" d="M431.56,414c5.785-1.2,17.188,15.224,26.951,15.993
	c14.654,1.156,20.293-9.114,21.045-21.935c0.75-12.763-2.098-23.147-8.246-34.285c-3.977-7.201-11.396-12.867-10.75-21.774"/>
<path fill="none" stroke="#000000" stroke-miterlimit="10" d="M441.56,355c-12.439,4.712,7.014,8.431,11.557,8
	c8.227-0.777,12.555-1.129,11.439-11.003c-1.354-12.024-15.539-16.862-21.6-5.38c-4.953,9.383,1.609,14.698,6.498,21.842
	c4.705,6.875,13.67,21.573,6.963,29.521c-5.035,5.967-18.07,3.343-24.857,4.021"/>
<path fill="none" stroke="#000000" stroke-miterlimit="10" d="M450.56,341c0-13.761,2.998-26.296,3-40
	c0.002-8.583,0-17.166,0-25.749c0-6.807,3.439-29.76,0.096-34.29c-3.717-5.038-13.023-2.722-19.07-2.961
	c-9.203-0.362-17.871-2.56-27.031-2.997c-18.75-0.893-37.746,0.043-56.518-0.003c-15.363-0.038-30.084,4.61-45.092,7.196
	c-14.412,2.482-19.681,3.008-18.625,18.831c1.33,19.912,7.086,39.083,10.782,58.604c3.487,18.417-1.108,35.608,4.46,53.37"/>
<path fill="none" stroke="#000000" stroke-miterlimit="10" d="M448.144,324.805c0,4.311-3.492,7.805-7.805,7.805h-10.973
	c-4.313,0-7.807-3.495-7.807-7.805l0,0c0-4.312,3.494-7.806,7.807-7.806h10.973C444.65,317,448.144,320.495,448.144,324.805
	L448.144,324.805z"/>
<path fill="none" stroke="#000000" stroke-miterlimit="10" d="M305.281,466c-54.035,0-108.095-1.597-162.001-2"/>
<path fill="none" stroke="#000000" stroke-miterlimit="10" d="M437.281,465c31.506,0,60.766-8,92-8c14.961,0,29.584,3.039,44,3"/>
<path fill="none" stroke="#000000" stroke-miterlimit="10" d="M148.28,464c0.166-14.78,14.349-31.291,23.243-42.104
	c9.212-11.199,11.693-20.437,26.692-20.896c15.654-0.479,31.401,0,47.064,0"/>
<path fill="none" stroke="#000000" stroke-miterlimit="10" d="M472.281,389c34.666,0,69.332,0,104,0"/>
<path fill="none" stroke="#000000" stroke-miterlimit="10" d="M50,20c11.149,14.765,7.159,47.799,7.777,64.8
	C59.032,119.244,58,153.896,58,188.371c0,41.624,0,83.248,0,124.872c0,34.521,0.253,68.75-3,102.758"/>
<path fill="none" stroke="#000000" stroke-miterlimit="10" d="M86,424c11.432-16.209,35.796-30.354,52.369-41.113
	C153.92,372.789,170.457,360.86,187,353"/>
<path fill="none" stroke="#000000" stroke-miterlimit="10" d="M50,393c-2.559,6.416-0.286,15.881,0.023,23.222
	c0.279,6.617-3.474,23.418-0.042,29.015C56.332,455.594,74.916,431.969,83,426"/>
<path fill="none" stroke="#000000" stroke-miterlimit="10" d="M189,346c17.491-0.045,35.001-5.849,52-5"/>
<path fill="none" stroke="#000000" stroke-miterlimit="10" d="M469,342c11.912-4.794,34.586-1,48.666-1c7.111,0,14.223,0,21.334,0"
	/>
<path fill="#C9BC9C" stroke="#000000" stroke-miterlimit="10" d="M455.117,537.445c0,12.457-15.229,22.555-34.018,22.555h-98.594
	c-18.787,0-34.016-10.098-34.016-22.555v-67.063c0-12.457,15.229-22.556,34.016-22.556h98.594c18.787,0,34.018,10.099,34.018,22.556
	V537.445z"/>
<path fill="none" stroke="#000000" stroke-miterlimit="10" d="M239,57c1.709,31.4,12.959,65.028,19.052,96.014
	c3.078,15.655,1.772,33.639,5.972,48.731c2.077,7.466,1.214,8.566,10.955,10.08c26.741,4.156,57.177,0.174,84.171,0.174
	c37.938,0,78.064,3.365,115.719-0.286c1.314-22.673,0.039-45.757,0.125-68.475c0.086-22.68-6.016-43.062-8.014-65.009
	c-0.457-5.018,2.686-18.077-0.77-22.052c-4.115-4.735-24.934-3.97-30.189-4.281C412.83,50.521,389.062,52,365.818,52
	c-37.605,0-75.212,0-112.818,0"/>
<path fill="#FFF100" stroke="#000000" stroke-miterlimit="10" d="M411,74c-19.76,2.994-8.75,36.299,2.727,43.019
	c6.051,3.542,20.523,8.687,27.035,3.896c15.316-11.265-15.025-12.148-19.758-15.166C413.187,100.765,409.197,86.025,410,77"/>
<path fill="none" stroke="#000000" stroke-miterlimit="10" d="M536,341c19,0,38,0,57,0"/>
<path fill="none" stroke="#000000" stroke-miterlimit="10" d="M528,459c0-29.524-1.758-60.524,1.199-89.925
	c3.623-35.995-3.521-72.51-8.199-108.075"/>
<path fill="none" stroke="#000000" stroke-miterlimit="10" d="M549,294c-0.357-3.696-16.166-6.271-22-7"/>
<path fill="none" stroke="#000000" stroke-miterlimit="10" d="M519,261c24.1,3.679,47.691,9.01,70,19"/>
<path fill="none" stroke="#000000" stroke-miterlimit="10" d="M539,288c10.285,7.412,29.721,6.059,42,10"/>
<path fill="none" stroke="#000000" stroke-miterlimit="10" d="M526,308c16.082-0.454,36.072,3.597,51,8"/>
<path fill="none" stroke="#000000" stroke-miterlimit="10" d="M533,334c14.473,0.037,29.16,1.815,43,6"/>
<path fill="none" stroke="#000000" stroke-miterlimit="10" d="M531,365c16.67-0.839,32.436,7.329,48,10"/>
<path fill="none" stroke="#000000" stroke-miterlimit="10" d="M528,405c15.621-6.547,41.604,7.952,57,14"/>
<path fill="none" stroke="#000000" stroke-miterlimit="10" d="M530,446c11.865-11.356,39.131,2.98,52,7"/>
<path fill="none" stroke="#000000" stroke-miterlimit="10" d="M533,461c12.404,9.643,30.209,2.683,44,7"/>
<path fill="none" stroke="#000000" stroke-miterlimit="10" d="M392.14,259.445c-28.497,0.201-36,37.139-36,58.774
	c0,24.867,9.667,40.188,36.777,36.219c26.084-3.818,45.139-45.31,40.242-69.999c-3.826-19.291-31.179-23.959-48.02-23.995"/>
<path fill="none" stroke="#000000" stroke-miterlimit="10" d="M415.14,239.445c-2.665,5.434-1.446,16.043-6.873,19.817
	c-3.654,2.541-11.337,1.156-15.625,1.183c4.78,0,9.638,0.087,14.366-0.151c-1.252-7.574-18.551-16.886-25.868-15.849"/>
<path fill="none" stroke="#000000" stroke-miterlimit="10" d="M425.14,297.445c15.082-5.444,46.336,15.424,59.304,22.546
	c3.852,2.115,19.187,8.84,18.826,14.729c-0.45,7.382-18.026,6.429-23.13,6.725"/>
<path fill="none" stroke="#000000" stroke-miterlimit="10" d="M501.14,294.445c4.755,17.425,16.758,56.48-13,55"/>
</svg>
